<?xml version="1.0" encoding="UTF-8" standalone="no"?>
<!-- Created with Inkscape (http://www.inkscape.org/) -->

<svg
   width="101.14571mm"
   height="129.14513mm"
   viewBox="0 0 101.14571 129.14513"
   version="1.1"
   id="svg1"
   xml:space="preserve"
   xmlns="http://www.w3.org/2000/svg"
   xmlns:svg="http://www.w3.org/2000/svg"><defs
     id="defs1" /><g
     id="layer2"
     transform="translate(-242.36522,-3.9933262)"><g
       id="g2"
       transform="matrix(1.605465,0,0,1.605465,-168.32875,-28.352191)"><path
         style="fill:#c4d814;fill-opacity:1;stroke-width:0.264583"
         d="M 53.046433,28.521577 77.643227,14.320611 A 1.0684554,1.0684554 75 0 0 77.108999,12.326846 H 21.023715 a 1.1446118,1.1446118 105.01041 0 0 -0.572666,2.135667 l 24.327997,14.057562 a 8.2647869,8.2647869 0.0104071 0 0 8.267387,0.0015 z"
         id="path2-9"
         transform="translate(238.95403,7.8202872)" /><path
         style="fill:#9eb006;fill-opacity:1;stroke-width:0.264583"
         d="M 53.046433,28.521577 77.643227,14.320611 A 1.0684554,1.0684554 75 0 0 77.108999,12.326846 H 21.023715 a 1.1446118,1.1446118 105.01041 0 0 -0.572666,2.135667 l 24.327997,14.057562 a 8.2647869,8.2647869 0.0104071 0 0 8.267387,0.0015 z"
         id="path2-5-5"
         transform="rotate(180,167.87904,56.457461)" /><path
         style="fill:#9eb006;fill-opacity:1;stroke-width:0.264583"
         d="M 53.046433,28.521577 77.643227,14.320611 A 1.0684554,1.0684554 75 0 0 77.108999,12.326846 H 21.023715 a 1.1446118,1.1446118 105.01041 0 0 -0.572666,2.135667 l 24.327997,14.057562 a 8.2647869,8.2647869 0.0104071 0 0 8.267387,0.0015 z"
         id="path2-5-0-9"
         transform="rotate(120,165.66348,105.48134)" /><path
         style="fill:#c4d814;fill-opacity:1;stroke-width:0.264583"
         d="M 53.046433,28.521577 77.643227,14.320611 A 1.0684554,1.0684554 75 0 0 77.108999,12.326846 H 21.023715 a 1.1446118,1.1446118 105.01041 0 0 -0.572666,2.135667 l 24.327997,14.057562 a 8.2647869,8.2647869 0.0104071 0 0 8.267387,0.0015 z"
         id="path2-5-0-6-0"
         transform="rotate(-60,209.5415,-150.11726)" /></g></g></svg>
