<?xml version="1.0" encoding="UTF-8" standalone="no"?>
<!-- Created with Inkscape (http://www.inkscape.org/) -->

<svg
   width="64.059219mm"
   height="80.440948mm"
   viewBox="0 0 64.059219 80.440948"
   version="1.1"
   id="svg1"
   xml:space="preserve"
   xmlns="http://www.w3.org/2000/svg"
   xmlns:svg="http://www.w3.org/2000/svg"><defs
     id="defs1" /><g
     id="layer2"
     transform="translate(-116.19706,-12.900614)"><path
       style="fill:#d3ec13;fill-opacity:1;stroke-width:0.264583"
       d="M 53.046433,28.521577 77.643227,14.320611 A 1.0684554,1.0684554 75 0 0 77.108999,12.326846 H 21.023715 a 1.1446118,1.1446118 105.01041 0 0 -0.572666,2.135667 l 24.327997,14.057562 a 8.2647869,8.2647869 0.0104071 0 0 8.267387,0.0015 z"
       id="path2"
       transform="translate(99.870278,0.57376903)" /><path
       style="fill:#acbe10;fill-opacity:1;stroke-width:0.264583"
       d="M 53.046433,28.521577 77.643227,14.320611 A 1.0684554,1.0684554 75 0 0 77.108999,12.326846 H 21.023715 a 1.1446118,1.1446118 105.01041 0 0 -0.572666,2.135667 l 24.327997,14.057562 a 8.2647869,8.2647869 0.0104071 0 0 8.267387,0.0015 z"
       id="path2-5"
       transform="rotate(180,98.337167,52.834202)" /><path
       style="fill:#acbe10;fill-opacity:1;stroke-width:0.264583"
       d="M 53.046433,28.521577 77.643227,14.320611 A 1.0684554,1.0684554 75 0 0 77.108999,12.326846 H 21.023715 a 1.1446118,1.1446118 105.01041 0 0 -0.572666,2.135667 l 24.327997,14.057562 a 8.2647869,8.2647869 0.0104071 0 0 8.267387,0.0015 z"
       id="path2-5-0"
       transform="rotate(120,98.478079,61.860814)" /><path
       style="fill:#d3ec13;fill-opacity:1;stroke-width:0.264583"
       d="M 53.046433,28.521577 77.643227,14.320611 A 1.0684554,1.0684554 75 0 0 77.108999,12.326846 H 21.023715 a 1.1446118,1.1446118 105.01041 0 0 -0.572666,2.135667 l 24.327997,14.057562 a 8.2647869,8.2647869 0.0104071 0 0 8.267387,0.0015 z"
       id="path2-5-0-6"
       transform="rotate(-60,133.45938,-32.832177)" /></g></svg>
