<svg xmlns="http://www.w3.org/2000/svg" xmlns:xlink="http://www.w3.org/1999/xlink" xmlns:lucid="lucid" width="894.79" height="419.15"><g transform="translate(-547 -197.42317708333331)" lucid:page-tab-id="0_0"><path d="M548 418.42a6 6 0 0 1 6-6h148a6 6 0 0 1 6 6v71.16a6 6 0 0 1-6 6H554a6 6 0 0 1-6-6z" stroke="#3a414a" stroke-width="2" fill="#fff"/><use xlink:href="#a" transform="matrix(1,0,0,1,560,424.42317708329443) translate(11.598090277777779 37.93402777777778)"/><path d="M548 204.42a6 6 0 0 1 6-6h148a6 6 0 0 1 6 6v71.16a6 6 0 0 1-6 6H554a6 6 0 0 1-6-6z" stroke="#3a414a" stroke-width="2" fill="#fff"/><use xlink:href="#b" transform="matrix(1,0,0,1,560,210.42317708333331) translate(31.102213541666664 37.93402777777778)"/><path d="M548 311.42a6 6 0 0 1 6-6h148a6 6 0 0 1 6 6v71.16a6 6 0 0 1-6 6H554a6 6 0 0 1-6-6z" stroke="#3a414a" stroke-width="2" fill="#fff"/><use xlink:href="#c" transform="matrix(1,0,0,1,560,317.4231770833139) translate(32.420572916666664 37.93402777777778)"/><path d="M548 525.42a6 6 0 0 1 6-6h148a6 6 0 0 1 6 6v71.16a6 6 0 0 1-6 6H554a6 6 0 0 1-6-6z" stroke="#3a414a" stroke-width="2" fill="#fff"/><use xlink:href="#d" transform="matrix(1,0,0,1,560,531.423177083275) translate(22.02018229166667 21.99652777777778)"/><use xlink:href="#e" transform="matrix(1,0,0,1,560,531.423177083275) translate(57.86002604166667 21.99652777777778)"/><use xlink:href="#f" transform="matrix(1,0,0,1,560,531.423177083275) translate(30.738715277777786 54.26215277777778)"/><path d="M842 602.58a6 6 0 0 1-6-6V204.42a6 6 0 0 1 6-6h64a6 6 0 0 1 6 6v392.16a6 6 0 0 1-6 6z" stroke="#3a414a" stroke-width="2" fill="#fff"/><use xlink:href="#g" transform="matrix(6.123233995736766e-17,-1,1,6.123233995736766e-17,848,590.5768229166083) translate(88.56857638888889 34.12152777777778)"/><use xlink:href="#h" transform="matrix(6.123233995736766e-17,-1,1,6.123233995736766e-17,848,590.5768229166083) translate(148.3125 34.12152777777778)"/><use xlink:href="#i" transform="matrix(6.123233995736766e-17,-1,1,6.123233995736766e-17,848,590.5768229166083) translate(205.06163194444446 34.12152777777778)"/><path d="M727.5 240H834" stroke="#3a414a" stroke-width="2" fill="none"/><path d="M712.24 240l14.26-4.63v9.26z" stroke="#3a414a" stroke-width="2" fill="#3a414a"/><path d="M835 240.97h-1.03v-1.94H835z" stroke="#3a414a" stroke-width=".05" fill="#3a414a"/><path d="M727.5 347H834" stroke="#3a414a" stroke-width="2" fill="none"/><path d="M712.24 347l14.26-4.63v9.26z" stroke="#3a414a" stroke-width="2" fill="#3a414a"/><path d="M835 347.98h-1.03v-1.96H835z" stroke="#3a414a" stroke-width=".05" fill="#3a414a"/><path d="M727.5 454H834" stroke="#3a414a" stroke-width="2" fill="none"/><path d="M712.24 454l14.26-4.63v9.26z" stroke="#3a414a" stroke-width="2" fill="#3a414a"/><path d="M835 454.98h-1.03v-1.96H835z" stroke="#3a414a" stroke-width=".05" fill="#3a414a"/><path d="M727.5 561H834" stroke="#3a414a" stroke-width="2" fill="none"/><path d="M712.24 561l14.26-4.63v9.26z" stroke="#3a414a" stroke-width="2" fill="#3a414a"/><path d="M835 561.98h-1.03V560H835z" stroke="#3a414a" stroke-width=".05" fill="#3a414a"/><path d="M1214.12 244.35a6 6 0 0 1 6-6h214.67a6 6 0 0 1 6 6v274.82a6 6 0 0 1-6 6H1220.1a6 6 0 0 1-6-6z" stroke="#3a414a" stroke-width="2" fill="#fff"/><use xlink:href="#j" transform="matrix(1,0,0,1,1226.1222221485061,250.34635416665714) translate(0 19.375)"/><use xlink:href="#k" transform="matrix(1,0,0,1,1226.1222221485061,250.34635416665714) translate(43.212890625 19.375)"/><path d="M1230.12 300.6a6 6 0 0 1 6-6h182.67a6 6 0 0 1 6 6v44a6 6 0 0 1-6 6H1236.1a6 6 0 0 1-6-6z" stroke="#3a414a" stroke-width="2" fill="#fff"/><use xlink:href="#l" transform="matrix(1,0,0,1,1242.1222221484863,306.58984374999034) translate(15.236328125 24.62152777777778)"/><use xlink:href="#m" transform="matrix(1,0,0,1,1242.1222221484863,306.58984374999034) translate(113.1638454861111 24.62152777777778)"/><path d="M1230.12 378.5a6 6 0 0 1 6-6h182.67a6 6 0 0 1 6 6v44a6 6 0 0 1-6 6H1236.1a6 6 0 0 1-6-6z" stroke="#3a414a" stroke-width="2" fill="#fff"/><use xlink:href="#l" transform="matrix(1,0,0,1,1242.1222221484863,384.4999999999709) translate(15.236328125 24.62152777777778)"/><use xlink:href="#m" transform="matrix(1,0,0,1,1242.1222221484863,384.4999999999709) translate(113.1638454861111 24.62152777777778)"/><path d="M1230.12 458.35a6 6 0 0 1 6-6h182.67a6 6 0 0 1 6 6v44a6 6 0 0 1-6 6H1236.1a6 6 0 0 1-6-6z" stroke="#3a414a" stroke-width="2" fill="#fff"/><use xlink:href="#l" transform="matrix(1,0,0,1,1242.1222221484863,464.3463541666181) translate(15.236328125 24.62152777777778)"/><use xlink:href="#m" transform="matrix(1,0,0,1,1242.1222221484863,464.3463541666181) translate(113.1638454861111 24.62152777777778)"/><path d="M1122.7 603.58c0 6.62-26.85 12-60 12-33.13 0-60-5.38-60-12v-96c0-6.63 26.88-12 60-12 33.15 0 60 5.37 60 12z" stroke="#3a414a" stroke-width="2" fill="#fff"/><path d="M1122.7 507.58c0 6.62-26.85 12-60 12-33.13 0-60-5.38-60-12" stroke="#3a414a" stroke-width="2" fill="none"/><use xlink:href="#n" transform="matrix(1,0,0,1,1007.7120658985157,524.5768229166277) translate(33.70008680555556 34.950954861111114)"/><use xlink:href="#o" transform="matrix(1,0,0,1,1007.7120658985157,524.5768229166277) translate(-0.6369357638888857 67.21657986111111)"/><path d="M965.38 345.6a6 6 0 0 1 6-6h182.67a6 6 0 0 1 6 6V455.4a6 6 0 0 1-6 6H971.38a6 6 0 0 1-6-6z" stroke="#3a414a" stroke-width="2" fill="#fff"/><use xlink:href="#l" transform="matrix(1,0,0,1,977.3787325651626,351.6149049334314) translate(15.236328125 21.52777777777778)"/><use xlink:href="#m" transform="matrix(1,0,0,1,977.3787325651626,351.6149049334314) translate(113.1638454861111 21.52777777777778)"/><path d="M1228.12 400.5h-48.57" stroke="#3a414a" stroke-width="2" fill="none"/><path d="M1229.12 401.48h-1.02v-1.96h1.02z" stroke="#3a414a" stroke-width=".05" fill="#3a414a"/><path d="M1164.28 400.5l14.27-4.63v9.26z" stroke="#3a414a" stroke-width="2" fill="#3a414a"/><path d="M963.38 400.5H931.5" stroke="#3a414a" stroke-width="2" fill="none"/><path d="M964.38 401.48h-1.03v-1.96h1.03z" stroke="#3a414a" stroke-width=".05" fill="#3a414a"/><path d="M916.24 400.5l14.26-4.63v9.26z" stroke="#3a414a" stroke-width="2" fill="#3a414a"/><path d="M1012.5 401.6a6 6 0 0 1 6-6h88.43a6 6 0 0 1 6 6v35.86a6 6 0 0 1-6 6h-88.44a6 6 0 0 1-6-6z" fill="#fff"/><path d="M1015.77 396.26l.87-.36.9-.22.95-.08h2.94m3.93 0h5.9m3.93 0h5.9m3.93 0h5.9m3.92 0h5.9m3.93 0h5.9m3.92 0h5.9m3.93 0h5.9m3.93 0h5.9m3.92 0h2.95l.94.08.92.22.85.36m2.63 2.62l.36.87.22.92.07.93v2.7m0 3.58v5.38m0 3.58v5.38m0 3.6v5.37m0 3.57v2.7l-.07.93-.22.92-.36.87m-2.63 2.6l-.87.37-.9.22-.95.06h-2.95m-3.93 0h-5.9m-3.92 0h-5.9m-3.93 0h-5.9m-3.93 0h-5.9m-3.92 0h-5.9m-3.93 0h-5.9m-3.93 0h-5.9m-3.93 0h-5.9m-3.93 0h-2.95l-.95-.07-.9-.23-.88-.36m-2.62-2.6l-.36-.88-.23-.92-.08-.94v-2.7m0-3.57v-5.4m0-3.58v-5.38m0-3.58v-5.38m0-3.6v-2.68l.07-.94.22-.9.35-.88" stroke="#3a414a" stroke-width="2" fill="none"/><g><use xlink:href="#p" transform="matrix(1,0,0,1,1024.4936374986428,407.60330383864147) translate(3.5835503472222214 17.694444444444443)"/></g><path d="M1062.7 493.58v-30.62" stroke="#3a414a" stroke-width="2" fill="none"/><path d="M1063.7 494.6l-1-.02-.96.03v-1.05h1.95z" stroke="#3a414a" stroke-width=".05" fill="#3a414a"/><path d="M1062.7 447.7l4.65 14.26h-9.27z" stroke="#3a414a" stroke-width="2" fill="#3a414a"/><defs><path d="M784 20c-382 0-662-292-662-764 0-473 280-766 662-766s660 293 660 766c0 472-278 764-660 764zm0-176c266 0 475-207 475-588 0-383-209-590-475-590-268 0-477 208-477 590 0 380 209 588 477 588" id="q"/><path d="M158 418v-1536h174v179h20c37-59 106-193 324-193 279 0 474 222 474 576 0 356-194 580-473 580-213 0-288-135-325-197h-14v591H158zm492-555c209 0 317-186 317-421 0-232-105-413-317-413-206 0-314 166-314 413 0 249 111 421 314 421" id="r"/><path d="M628 24c-324 0-524-230-524-574 0-343 198-582 503-582 237 0 487 146 487 559v75H286c9 234 145 362 343 362 132 0 231-58 273-172l174 48C1024-91 857 24 628 24zM287-650h624c-17-190-120-322-304-322-192 0-309 151-320 322" id="s"/><path d="M338-670V0H158v-1118h173l1 207c72-158 192-221 342-221 226 0 378 139 378 422V0H872v-695c0-172-96-275-252-275-161 0-282 109-282 300" id="t"/><path d="M783 20c-382 0-661-292-661-764 0-473 279-766 661-766 302 0 548 182 601 489h-190c-42-204-217-313-411-313-268 0-476 208-476 590 0 381 209 588 476 588 195 0 369-110 411-313h190c-52 303-296 489-601 489" id="u"/><path d="M613 24c-304 0-509-231-509-576 0-350 205-580 509-580 305 0 511 230 511 580 0 345-206 576-511 576zm0-161c226 0 329-195 329-415 0-222-103-419-329-419-223 0-326 196-326 419 0 220 103 415 326 415" id="v"/><path d="M577 24c-279 0-473-224-473-580 0-354 195-576 474-576 218 0 287 134 324 193h14v-551h180V0H922v-173h-20C865-111 790 24 577 24zm27-161c203 0 314-172 314-421 0-247-108-413-314-413-212 0-317 181-317 413 0 235 108 421 317 421" id="w"/><g id="a"><use transform="matrix(0.010850694444444444,0,0,0.010850694444444444,0,0)" xlink:href="#q"/><use transform="matrix(0.010850694444444444,0,0,0.010850694444444444,16.9921875,0)" xlink:href="#r"/><use transform="matrix(0.010850694444444444,0,0,0.010850694444444444,30.598958333333332,0)" xlink:href="#s"/><use transform="matrix(0.010850694444444444,0,0,0.010850694444444444,43.5546875,0)" xlink:href="#t"/><use transform="matrix(0.010850694444444444,0,0,0.010850694444444444,56.68402777777778,0)" xlink:href="#u"/><use transform="matrix(0.010850694444444444,0,0,0.010850694444444444,72.91666666666667,0)" xlink:href="#v"/><use transform="matrix(0.010850694444444444,0,0,0.010850694444444444,86.24131944444444,0)" xlink:href="#w"/><use transform="matrix(0.010850694444444444,0,0,0.010850694444444444,99.84809027777777,0)" xlink:href="#s"/></g><path d="M338-1490V0H158v-1490h180" id="x"/><path d="M471 26C259 26 90-98 90-318c0-256 228-303 435-329 202-27 287-16 287-108 0-139-79-219-234-219-161 0-248 86-283 164l-173-57c86-203 278-265 451-265 150 0 419 46 419 395V0H815v-152h-12C765-73 660 26 471 26zm31-159c199 0 310-134 310-271v-155c-30 35-226 55-295 64-131 17-246 59-246 186 0 116 97 176 231 176" id="y"/><path d="M537 14c-226 0-379-139-379-422v-710h180v695c0 172 97 275 253 275 160 0 281-109 281-300v-670h181V0H879v-209C806-46 684 14 537 14" id="z"/><g id="b"><use transform="matrix(0.010850694444444444,0,0,0.010850694444444444,0,0)" xlink:href="#u"/><use transform="matrix(0.010850694444444444,0,0,0.010850694444444444,16.23263888888889,0)" xlink:href="#x"/><use transform="matrix(0.010850694444444444,0,0,0.010850694444444444,21.614583333333336,0)" xlink:href="#y"/><use transform="matrix(0.010850694444444444,0,0,0.010850694444444444,34.09288194444444,0)" xlink:href="#z"/><use transform="matrix(0.010850694444444444,0,0,0.010850694444444444,47.233072916666664,0)" xlink:href="#w"/><use transform="matrix(0.010850694444444444,0,0,0.010850694444444444,60.83984375,0)" xlink:href="#s"/></g><path d="M158 0v-1118h174v172h12c41-113 157-188 290-188 26 0 70 2 91 3v181c-11-2-60-10-108-10-161 0-279 109-279 260V0H158" id="A"/><path d="M538 24C308 24 148-78 108-271l171-41c32 123 123 178 257 178 156 0 256-77 256-169 0-77-54-128-164-154l-186-44c-203-48-300-148-300-305 0-192 176-326 414-326 230 0 351 112 402 269l-163 42c-31-80-94-158-238-158-133 0-233 69-233 162 0 83 57 129 188 160l169 40c203 48 298 149 298 302 0 196-179 339-441 339" id="B"/><g id="c"><use transform="matrix(0.010850694444444444,0,0,0.010850694444444444,0,0)" xlink:href="#u"/><use transform="matrix(0.010850694444444444,0,0,0.010850694444444444,16.23263888888889,0)" xlink:href="#z"/><use transform="matrix(0.010850694444444444,0,0,0.010850694444444444,29.37282986111111,0)" xlink:href="#A"/><use transform="matrix(0.010850694444444444,0,0,0.010850694444444444,37.73871527777778,0)" xlink:href="#B"/><use transform="matrix(0.010850694444444444,0,0,0.010850694444444444,49.46831597222222,0)" xlink:href="#v"/><use transform="matrix(0.010850694444444444,0,0,0.010850694444444444,62.79296875,0)" xlink:href="#A"/></g><path d="M600 0L52-1490h200c166 485 304 806 458 1336 156-533 285-846 449-1336h202L819 0H600" id="C"/><path d="M657 26c-323 0-524-166-541-416h195c15 169 171 246 346 246 202 0 356-106 356-265 5-203-294-238-475-293-239-73-380-191-380-389 0-252 224-419 512-419 294 0 499 171 508 396H992c-17-145-151-228-328-228-193 0-321 102-321 242 0 156 175 211 284 241l149 41c160 44 422 134 422 412 0 244-197 432-541 432" id="D"/><g id="d"><use transform="matrix(0.010850694444444444,0,0,0.010850694444444444,0,0)" xlink:href="#C"/><use transform="matrix(0.010850694444444444,0,0,0.010850694444444444,15.33203125,0)" xlink:href="#D"/></g><g id="e"><use transform="matrix(0.010850694444444444,0,0,0.010850694444444444,0,0)" xlink:href="#u"/><use transform="matrix(0.010850694444444444,0,0,0.010850694444444444,16.23263888888889,0)" xlink:href="#v"/><use transform="matrix(0.010850694444444444,0,0,0.010850694444444444,29.557291666666664,0)" xlink:href="#w"/><use transform="matrix(0.010850694444444444,0,0,0.010850694444444444,43.1640625,0)" xlink:href="#s"/></g><path d="M158 0v-1118h180V0H158zm91-1301c-68 0-125-53-125-119s57-119 125-119c69 0 126 53 126 119s-57 119-126 119" id="E"/><path d="M598-1118v154H368v674c0 100 37 144 132 144 23 0 62-6 92-12L629-6c-37 13-88 20-134 20-193 0-307-107-307-290v-688H20v-154h168v-266h180v266h230" id="F"/><g id="f"><use transform="matrix(0.010850694444444444,0,0,0.010850694444444444,0,0)" xlink:href="#u"/><use transform="matrix(0.010850694444444444,0,0,0.010850694444444444,16.23263888888889,0)" xlink:href="#v"/><use transform="matrix(0.010850694444444444,0,0,0.010850694444444444,29.557291666666664,0)" xlink:href="#r"/><use transform="matrix(0.010850694444444444,0,0,0.010850694444444444,43.1640625,0)" xlink:href="#E"/><use transform="matrix(0.010850694444444444,0,0,0.010850694444444444,48.54600694444444,0)" xlink:href="#x"/><use transform="matrix(0.010850694444444444,0,0,0.010850694444444444,53.927951388888886,0)" xlink:href="#v"/><use transform="matrix(0.010850694444444444,0,0,0.010850694444444444,67.25260416666666,0)" xlink:href="#F"/></g><path d="M130 0v-134l666-991c45-67 96-135 147-202-269 9-546 3-821 5v-168h1036v136L502-379c-49 72-103 145-157 216 268-9 546-3 821-5V0H130" id="G"/><path d="M1096 418H916v-591h-14C865-111 790 24 577 24c-279 0-473-224-473-580 0-354 195-576 474-576 218 0 287 134 324 193h20v-179h174V418zM604-137c203 0 314-172 314-421 0-247-108-413-314-413-212 0-317 181-317 413 0 235 108 421 317 421" id="H"/><g id="g"><use transform="matrix(0.010850694444444444,0,0,0.010850694444444444,0,0)" xlink:href="#G"/><use transform="matrix(0.010850694444444444,0,0,0.010850694444444444,13.975694444444445,0)" xlink:href="#s"/><use transform="matrix(0.010850694444444444,0,0,0.010850694444444444,26.93142361111111,0)" xlink:href="#s"/><use transform="matrix(0.010850694444444444,0,0,0.010850694444444444,39.88715277777778,0)" xlink:href="#H"/></g><path d="M180 0v-1490h270l367 940c28 72 75 218 110 339 35-117 81-264 110-339l362-940h271V0h-187c2-448-5-837 7-1287-157 497-311 829-483 1287H842C666-458 514-784 354-1284c12 438 5 843 7 1284H180" id="I"/><path d="M180 0v-1490h510c348 0 508 209 508 474 0 266-160 477-507 477H370V0H180zm190-706h312c236 0 327-133 327-310 0-176-91-307-329-307H370v617" id="J"/><g id="h"><use transform="matrix(0.010850694444444444,0,0,0.010850694444444444,0,0)" xlink:href="#I"/><use transform="matrix(0.010850694444444444,0,0,0.010850694444444444,20.07378472222222,0)" xlink:href="#u"/><use transform="matrix(0.010850694444444444,0,0,0.010850694444444444,36.306423611111114,0)" xlink:href="#J"/></g><path d="M158 0v-1118h175l1 205c55-151 181-225 313-225 147 0 245 90 285 228 53-141 190-228 352-228 194 0 352 125 352 384V0h-181v-749c0-161-105-225-225-225-151 0-243 103-243 244V0H807v-767c0-124-93-207-219-207-131 0-250 92-250 270V0H158" id="K"/><g id="i"><use transform="matrix(0.010850694444444444,0,0,0.010850694444444444,0,0)" xlink:href="#J"/><use transform="matrix(0.010850694444444444,0,0,0.010850694444444444,14.192708333333332,0)" xlink:href="#A"/><use transform="matrix(0.010850694444444444,0,0,0.010850694444444444,22.189670138888886,0)" xlink:href="#v"/><use transform="matrix(0.010850694444444444,0,0,0.010850694444444444,35.514322916666664,0)" xlink:href="#K"/><use transform="matrix(0.010850694444444444,0,0,0.010850694444444444,54.98046875,0)" xlink:href="#r"/><use transform="matrix(0.010850694444444444,0,0,0.010850694444444444,68.58723958333333,0)" xlink:href="#F"/><use transform="matrix(0.010850694444444444,0,0,0.010850694444444444,75.64019097222221,0)" xlink:href="#B"/></g><path d="M659 0H135v-1490h529c448 0 721 280 721 744 0 466-273 746-726 746zM440-263h204c287 0 437-148 437-483 0-333-150-481-435-481H440v964" id="L"/><path d="M628 22C291 22 81-210 81-554c0-346 210-578 547-578 336 0 547 232 547 578 0 344-211 576-547 576zm0-236c160 0 242-146 242-341 0-197-82-341-242-341S387-753 387-555c0 195 81 341 241 341" id="M"/><path d="M628 22C291 22 81-210 81-554c0-346 210-578 547-578 265 0 455 142 497 372l-279 52c-25-116-99-188-215-188-160 0-244 139-244 341 0 200 84 341 244 341 116 0 193-74 217-195l279 51C1085-123 896 22 628 22" id="N"/><g id="j"><use transform="matrix(0.009765625,0,0,0.009765625,0,0)" xlink:href="#L"/><use transform="matrix(0.009765625,0,0,0.009765625,14.443359375,0)" xlink:href="#M"/><use transform="matrix(0.009765625,0,0,0.009765625,26.708984375,0)" xlink:href="#N"/></g><path d="M135 0v-1490h305v1237h643V0H135" id="O"/><path d="M128 0v-1118h300V0H128zm150-1264c-91 0-165-68-165-154 0-85 74-154 165-154 90 0 165 69 165 154 0 86-75 154-165 154" id="P"/><path d="M754 19C571 19 479-89 437-179h-14V0H128v-1490h300v560h9c41-89 129-202 319-202 248 0 453 193 453 575 0 372-197 576-455 576zm-92-241c156 0 240-139 240-336 0-196-83-334-240-334-154 0-241 131-241 334 0 202 88 336 241 336" id="Q"/><path d="M128 0v-1118h290v195h12c54-169 184-238 367-200v268c-27-8-86-15-130-15-138 0-239 95-239 234V0H128" id="R"/><path d="M440 22C227 22 68-92 68-313c0-250 202-322 422-343 195-21 271-24 271-105 0-95-63-149-175-149-116 0-187 57-211 129l-275-46c57-194 237-305 487-305 240 0 474 108 474 379V0H777v-155h-10C713-51 605 22 440 22zm85-211c140 0 238-93 238-211v-121c-37 26-156 42-222 51-111 16-185 59-185 149 0 87 70 132 169 132" id="S"/><path d="M120 396l69-226c123 42 245 23 254-107l8-60L31-1118h319c87 288 199 559 259 872 72-308 185-583 277-872h315L726 132c-68 181-186 294-410 294-79 0-153-13-196-30" id="T"/><g id="k"><use transform="matrix(0.009765625,0,0,0.009765625,0,0)" xlink:href="#O"/><use transform="matrix(0.009765625,0,0,0.009765625,11.30859375,0)" xlink:href="#P"/><use transform="matrix(0.009765625,0,0,0.009765625,16.728515625,0)" xlink:href="#Q"/><use transform="matrix(0.009765625,0,0,0.009765625,29.3359375,0)" xlink:href="#R"/><use transform="matrix(0.009765625,0,0,0.009765625,37.20703125,0)" xlink:href="#S"/><use transform="matrix(0.009765625,0,0,0.009765625,48.818359375,0)" xlink:href="#R"/><use transform="matrix(0.009765625,0,0,0.009765625,57.275390625,0)" xlink:href="#T"/></g><path d="M645 0H180v-1490h484c435 0 692 280 692 742 0 466-257 748-711 748zM370-168h263c363 0 539-218 539-580 0-358-176-574-521-574H370v1154" id="U"/><path d="M140 405l46-156c120 36 205 19 263-150l32-93L54-1118h197c107 313 237 620 324 950 87-331 219-637 326-950h196L606 167c-68 178-176 259-334 259-64 0-113-12-132-21" id="V"/><path d="M613 24c-304 0-509-231-509-576 0-350 205-580 509-580 216 0 392 114 453 309l-173 49c-33-115-133-197-280-197-223 0-326 196-326 419 0 220 103 415 326 415 150 0 252-85 285-206l172 49C1010-95 832 24 613 24" id="W"/><g id="l"><use transform="matrix(0.010850694444444444,0,0,0.010850694444444444,0,0)" xlink:href="#U"/><use transform="matrix(0.010850694444444444,0,0,0.010850694444444444,16.03732638888889,0)" xlink:href="#V"/><use transform="matrix(0.010850694444444444,0,0,0.010850694444444444,28.526475694444443,0)" xlink:href="#t"/><use transform="matrix(0.010850694444444444,0,0,0.010850694444444444,41.65581597222222,0)" xlink:href="#y"/><use transform="matrix(0.010850694444444444,0,0,0.010850694444444444,54.13411458333333,0)" xlink:href="#K"/><use transform="matrix(0.010850694444444444,0,0,0.010850694444444444,73.60026041666666,0)" xlink:href="#E"/><use transform="matrix(0.010850694444444444,0,0,0.010850694444444444,78.9822048611111,0)" xlink:href="#W"/></g><path d="M158 0v-1490h180v865h22l478-493h223L593-638 1096 0H865L456-523 338-412V0H158" id="X"/><g id="m"><use transform="matrix(0.010850694444444444,0,0,0.010850694444444444,0,0)" xlink:href="#D"/><use transform="matrix(0.010850694444444444,0,0,0.010850694444444444,14.2578125,0)" xlink:href="#X"/><use transform="matrix(0.010850694444444444,0,0,0.010850694444444444,26.45399305555556,0)" xlink:href="#E"/><use transform="matrix(0.010850694444444444,0,0,0.010850694444444444,31.8359375,0)" xlink:href="#x"/><use transform="matrix(0.010850694444444444,0,0,0.010850694444444444,37.21788194444444,0)" xlink:href="#x"/></g><g id="n"><use transform="matrix(0.010850694444444444,0,0,0.010850694444444444,0,0)" xlink:href="#D"/><use transform="matrix(0.010850694444444444,0,0,0.010850694444444444,14.2578125,0)" xlink:href="#X"/><use transform="matrix(0.010850694444444444,0,0,0.010850694444444444,26.45399305555556,0)" xlink:href="#E"/><use transform="matrix(0.010850694444444444,0,0,0.010850694444444444,31.8359375,0)" xlink:href="#x"/><use transform="matrix(0.010850694444444444,0,0,0.010850694444444444,37.21788194444444,0)" xlink:href="#x"/></g><path d="M180 0v-1490h901v168H370v510h643v168H370V0H180" id="Y"/><path d="M611 442c-248 0-391-105-460-228l146-94c47 65 117 165 314 165 178 0 307-82 307-266v-224h-17C863-141 792-18 576-18c-268 0-472-195-472-546 0-346 197-568 476-568 216 0 288 133 326 193h17v-179h175V29c0 289-215 413-487 413zm-5-620c203 0 314-146 314-390 0-237-108-403-314-403-213 0-319 180-319 403 0 230 109 390 319 390" id="Z"/><g id="o"><use transform="matrix(0.010850694444444444,0,0,0.010850694444444444,0,0)" xlink:href="#Y"/><use transform="matrix(0.010850694444444444,0,0,0.010850694444444444,12.467447916666666,0)" xlink:href="#A"/><use transform="matrix(0.010850694444444444,0,0,0.010850694444444444,20.833333333333332,0)" xlink:href="#y"/><use transform="matrix(0.010850694444444444,0,0,0.010850694444444444,33.31163194444444,0)" xlink:href="#Z"/><use transform="matrix(0.010850694444444444,0,0,0.010850694444444444,46.940104166666664,0)" xlink:href="#K"/><use transform="matrix(0.010850694444444444,0,0,0.010850694444444444,66.40625,0)" xlink:href="#s"/><use transform="matrix(0.010850694444444444,0,0,0.010850694444444444,79.36197916666667,0)" xlink:href="#t"/><use transform="matrix(0.010850694444444444,0,0,0.010850694444444444,92.49131944444444,0)" xlink:href="#F"/><use transform="matrix(0.010850694444444444,0,0,0.010850694444444444,99.54427083333333,0)" xlink:href="#B"/></g><g id="p"><use transform="matrix(0.007595486111111111,0,0,0.007595486111111111,0,0)" xlink:href="#Y"/><use transform="matrix(0.007595486111111111,0,0,0.007595486111111111,8.727213541666668,0)" xlink:href="#A"/><use transform="matrix(0.007595486111111111,0,0,0.007595486111111111,14.583333333333336,0)" xlink:href="#y"/><use transform="matrix(0.007595486111111111,0,0,0.007595486111111111,23.318142361111114,0)" xlink:href="#Z"/><use transform="matrix(0.007595486111111111,0,0,0.007595486111111111,32.85807291666667,0)" xlink:href="#K"/><use transform="matrix(0.007595486111111111,0,0,0.007595486111111111,46.48437500000001,0)" xlink:href="#s"/><use transform="matrix(0.007595486111111111,0,0,0.007595486111111111,55.55338541666667,0)" xlink:href="#t"/><use transform="matrix(0.007595486111111111,0,0,0.007595486111111111,64.74392361111111,0)" xlink:href="#F"/></g></defs></g></svg>