<svg xmlns="http://www.w3.org/2000/svg" xmlns:xlink="http://www.w3.org/1999/xlink" xmlns:lucid="lucid" width="584.27" height="449.89"><g transform="translate(-285.1976510809143 51.61413797681564)" lucid:page-tab-id="0_0"><path d="M712.47-44.6a6 6 0 0 1 6-6h144a6 6 0 0 1 6 6V2.87a6 6 0 0 1-6 6h-144a6 6 0 0 1-6-6z" stroke="#000" stroke-width="2" fill="#fff"/><use xlink:href="#a" transform="matrix(1,0,0,1,724.4690155858304,-38.61413797681564) translate(27.702473958333336 22.760416666666668)"/><use xlink:href="#b" transform="matrix(1,0,0,1,724.4690155858304,-38.61413797681564) translate(86.11393229166666 22.760416666666668)"/><path d="M712.47 109.14a6 6 0 0 1 6-6h144a6 6 0 0 1 6 6v47.5a6 6 0 0 1-6 6h-144a6 6 0 0 1-6-6z" stroke="#000" stroke-width="2" fill="#fff"/><use xlink:href="#c" transform="matrix(1,0,0,1,724.4690155858304,115.1430970695709) translate(26.93424479166667 22.760416666666668)"/><use xlink:href="#d" transform="matrix(1,0,0,1,724.4690155858304,115.1430970695709) translate(55.54101562500001 22.760416666666668)"/><use xlink:href="#e" transform="matrix(1,0,0,1,724.4690155858304,115.1430970695709) translate(72.79361979166667 22.760416666666668)"/><path d="M712.47 187.36a6 6 0 0 1 6-6h144a6 6 0 0 1 6 6v47.5a6 6 0 0 1-6 6h-144a6 6 0 0 1-6-6z" stroke="#000" stroke-width="2" fill="#fff"/><use xlink:href="#f" transform="matrix(1,0,0,1,724.4690155858304,193.35827042754147) translate(21.48502604166667 22.760416666666668)"/><use xlink:href="#d" transform="matrix(1,0,0,1,724.4690155858304,193.35827042754147) translate(60.99023437500001 22.760416666666668)"/><use xlink:href="#e" transform="matrix(1,0,0,1,724.4690155858304,193.35827042754147) translate(78.24283854166667 22.760416666666668)"/><path d="M712.47 265.57a6 6 0 0 1 6-6h144a6 6 0 0 1 6 6v47.5a6 6 0 0 1-6 6h-144a6 6 0 0 1-6-6z" stroke="#000" stroke-width="2" fill="#fff"/><use xlink:href="#g" transform="matrix(1,0,0,1,724.4690155858304,271.57344378551204) translate(17.14583333333333 22.760416666666668)"/><use xlink:href="#h" transform="matrix(1,0,0,1,724.4690155858304,271.57344378551204) translate(38.43489583333333 22.760416666666668)"/><use xlink:href="#e" transform="matrix(1,0,0,1,724.4690155858304,271.57344378551204) translate(82.58203125 22.760416666666668)"/><path d="M286.2 32.26a6 6 0 0 1 6-6h144a6 6 0 0 1 6 6v47.5a6 6 0 0 1-6 6h-144a6 6 0 0 1-6-6z" stroke="#000" stroke-width="2" fill="#fff"/><use xlink:href="#i" transform="matrix(1,0,0,1,298.1976510809143,38.26447954637763) translate(8.164713541666657 22.760416666666668)"/><use xlink:href="#j" transform="matrix(1,0,0,1,298.1976510809143,38.26447954637763) translate(42.422526041666664 22.760416666666668)"/><use xlink:href="#k" transform="matrix(1,0,0,1,298.1976510809143,38.26447954637763) translate(69.701171875 22.760416666666668)"/><use xlink:href="#l" transform="matrix(1,0,0,1,298.1976510809143,38.26447954637763) translate(98.30794270833334 22.760416666666668)"/><path d="M712.47 32.26a6 6 0 0 1 6-6h144a6 6 0 0 1 6 6v47.5a6 6 0 0 1-6 6h-144a6 6 0 0 1-6-6z" stroke="#000" stroke-width="2" fill="#fff"/><use xlink:href="#a" transform="matrix(1,0,0,1,724.4690155858304,38.26447954637763) translate(8.060546875 22.760416666666668)"/><use xlink:href="#m" transform="matrix(1,0,0,1,724.4690155858304,38.26447954637763) translate(66.47200520833333 22.760416666666668)"/><use xlink:href="#n" transform="matrix(1,0,0,1,724.4690155858304,38.26447954637763) translate(87.38346354166666 22.760416666666668)"/><path d="M286.2 110.48a6 6 0 0 1 6-6h144a6 6 0 0 1 6 6v47.5a6 6 0 0 1-6 6h-144a6 6 0 0 1-6-6z" stroke="#000" stroke-width="2" fill="#fff"/><use xlink:href="#i" transform="matrix(1,0,0,1,298.1976510809143,116.4796529043482) translate(2.715494791666657 22.760416666666668)"/><use xlink:href="#j" transform="matrix(1,0,0,1,298.1976510809143,116.4796529043482) translate(36.973307291666664 22.760416666666668)"/><use xlink:href="#o" transform="matrix(1,0,0,1,298.1976510809143,116.4796529043482) translate(64.251953125 22.760416666666668)"/><use xlink:href="#l" transform="matrix(1,0,0,1,298.1976510809143,116.4796529043482) translate(103.75716145833334 22.760416666666668)"/><path d="M286.2 188.7a6 6 0 0 1 6-6h144a6 6 0 0 1 6 6v47.5a6 6 0 0 1-6 6h-144a6 6 0 0 1-6-6z" stroke="#000" stroke-width="2" fill="#fff"/><use xlink:href="#p" transform="matrix(1,0,0,1,298.1976510809143,194.69482626231877) translate(5.140625 22.760416666666668)"/><use xlink:href="#j" transform="matrix(1,0,0,1,298.1976510809143,194.69482626231877) translate(45.446614583333336 22.760416666666668)"/><use xlink:href="#k" transform="matrix(1,0,0,1,298.1976510809143,194.69482626231877) translate(72.72526041666667 22.760416666666668)"/><use xlink:href="#l" transform="matrix(1,0,0,1,298.1976510809143,194.69482626231877) translate(101.33203125 22.760416666666668)"/><path d="M286.2 266.9a6 6 0 0 1 6-6h144a6 6 0 0 1 6 6v47.5a6 6 0 0 1-6 6h-144a6 6 0 0 1-6-6z" stroke="#000" stroke-width="2" fill="#fff"/><use xlink:href="#p" transform="matrix(1,0,0,1,298.1976510809143,272.90999962028934) translate(14.330078125 13.197916666666668)"/><use xlink:href="#j" transform="matrix(1,0,0,1,298.1976510809143,272.90999962028934) translate(54.636067708333336 13.197916666666668)"/><use xlink:href="#q" transform="matrix(1,0,0,1,298.1976510809143,272.90999962028934) translate(81.91471354166667 13.197916666666668)"/><use xlink:href="#l" transform="matrix(1,0,0,1,298.1976510809143,272.90999962028934) translate(53.236328125 32.55729166666667)"/><path d="M712.47 343.8a6 6 0 0 1 6-6h144a6 6 0 0 1 6 6v47.48a6 6 0 0 1-6 6h-144a6 6 0 0 1-6-6z" stroke="#000" stroke-width="2" fill="#fff"/><use xlink:href="#r" transform="matrix(1,0,0,1,724.4690155858304,349.7886171434826) translate(11.452473958333329 13.197916666666668)"/><use xlink:href="#s" transform="matrix(1,0,0,1,724.4690155858304,349.7886171434826) translate(36.498046875 13.197916666666668)"/><use xlink:href="#t" transform="matrix(1,0,0,1,724.4690155858304,349.7886171434826) translate(92.650390625 13.197916666666668)"/><use xlink:href="#u" transform="matrix(1,0,0,1,724.4690155858304,349.7886171434826) translate(36.67057291666667 32.55729166666667)"/><path d="M710.97-20.86l-13.23.27-12.07.77-10.8 1.13-9.86 1.45-9.1 1.74-8.56 2-8.2 2.3-8.06 2.6-8.1 3.02-8.5 3.57-9.56 4.5-12.97 6.8-42.2 23.35-9.56 4.5-8.5 3.57-8.1 3.02-8.06 2.6-8.2 2.3-8.58 2.02-9.1 1.73-9.85 1.44-10.8 1.13-9.43.6" stroke="#3a414a" stroke-linejoin="round" fill="none"/><path d="M711.47-20.4l-.5.02-.03-.95h.53z" stroke="#3a414a" stroke-width=".05" fill="#3a414a"/><path d="M444.8 55.97l14.15-5.03.25 9.27z" stroke="#3a414a" fill="#3a414a"/><path d="M710.97-20.86l-6.54.14-6.6.4-6.22.66-5.9.88-5.64 1.07-5.43 1.27-5.26 1.46-5.12 1.67-5 1.86-4.97 2.08-4.92 2.32-4.94 2.58-5 2.9-5.1 3.23-5.27 3.67-5.56 4.22-6 4.95-6.66 6.03-7.94 7.78-11.2 12-39.94 44.75-7.93 7.78-6.67 6.02-5.98 4.95-5.56 4.22-5.28 3.67-5.1 3.23-5 2.88-4.93 2.6-4.92 2.3-4.95 2.1-5.02 1.86-5.1 1.66-5.26 1.47-5.43 1.26-5.64 1.08-5.9.87-3.5.38" stroke="#3a414a" stroke-linejoin="round" fill="none"/><path d="M711.47-20.4l-.5.02-.03-.95h.53z" stroke="#3a414a" stroke-width=".05" fill="#3a414a"/><path d="M444.8 134.14l14.02-5.36.48 9.26z" stroke="#3a414a" fill="#3a414a"/><path d="M710.97 132.88l-4.76-.1m-4.74-.1l-3.72-.07-12.07-.75-3.2-.33m-4.72-.5l-2.9-.3-6.52-.96m-4.7-.75l-7.72-1.47-8.56-2-2.27-.64m-4.58-1.3l-1.37-.37-7.7-2.5m-4.46-1.64l-4-1.5-8.5-3.57-5-2.36m-4.3-2.03l-.25-.12-8.17-4.3m-4.2-2.2l-.6-.3-16.07-8.9m-4.16-2.3l-8.32-4.6m-4.16-2.3l-9.5-5.24-7.38-3.5M538 73.97l-6.3-2.66-2.5-.93m-4.45-1.66l-1.16-.42-8.06-2.6-8.2-2.3-.78-.2m-4.63-1.07l-3.17-.73-6.14-1.17m-4.68-.82l-8.13-1.2-10.74-1.13m-4.74-.3l-4.75-.3" stroke="#3a414a" stroke-linejoin="round" fill="none"/><path d="M711.47 132.4v.96h-.53l.02-.96z" stroke="#3a414a" stroke-width=".05" fill="#3a414a"/><path d="M444.8 56.05l14.4-4.24-.25 9.28z" stroke="#3a414a" fill="#3a414a"/><path d="M710.97 211.1l-4.88-.1m-4.9-.1l-.96-.03m-4.87-.2l-9.7-.6h-.04m-4.85-.5l-.97-.1m-4.84-.52h-.1l-9.55-1.42m-4.78-.9l-.96-.18m-4.78-.96l-7.44-1.76-2.03-.57m-4.7-1.3l-.93-.27m-4.64-1.48l-3.95-1.3-5.25-1.94m-4.54-1.77l-.9-.37m-4.5-1.9l-1.42-.6-7.44-3.5m-4.36-2.17l-.86-.45m-4.32-2.26l-5.55-2.9-3.05-1.7m-4.27-2.36l-.85-.47m-4.27-2.35l-8.52-4.72m-4.27-2.36l-.84-.47m-4.27-2.36l-8.55-4.72m-4.3-2.3l-.88-.4m-4.4-2.1l-3.28-1.53-5.67-2.4m-4.52-1.8l-.9-.35m-4.58-1.7l-.93-.35-8.06-2.62-.28-.08m-4.7-1.3l-.94-.27m-4.72-1.2l-6.14-1.45-3.4-.65m-4.78-.9l-.93-.2h-.02m-4.83-.7l-5-.74-4.67-.5m-4.85-.5l-.97-.1m-4.86-.32l-4.87-.3" stroke="#3a414a" stroke-linejoin="round" fill="none"/><path d="M711.47 210.63v.95h-.53l.02-.96z" stroke="#3a414a" stroke-width=".05" fill="#3a414a"/><path d="M444.8 134.27l14.4-4.25-.25 9.27z" stroke="#3a414a" fill="#3a414a"/><path d="M710.97 56.02l-5.16.1m-5.13.28l-1.03.06m-5.13.47l-1 .1m-5.12.68l-2.48.38-5.6 1.07-2.04.48m-5 1.24l-1 .28m-4.92 1.48l-.98.32m-4.86 1.72l-1.9.7-4.94 2.08-2.64 1.25m-4.6 2.3l-.92.47m-4.5 2.5l-.9.52m-4.38 2.7l-1.9 1.2-5.25 3.66-1.32 1m-4.1 3.12l-.1.07-.7.58m-3.96 3.3l-.8.64m-3.85 3.44l-3.2 2.88-4.28 4.2m-3.67 3.63l-.7.76m-3.52 3.76l-.7.75m-3.53 3.77l-1.98 2.1-4.9 5.55m-3.43 3.85l-.68.77m-3.42 3.85l-.7.77m-3.4 3.86l-6.84 7.7m-3.42 3.86l-.68.77m-3.42 3.86l-.68.76m-3.42 3.85l-6.84 7.72m-3.64 3.65l-.74.72m-3.67 3.6l-.2.17-.57.52m-3.83 3.44l-2.17 1.96-5.68 4.7m-4.1 3.13l-.82.63m-4.2 2.97l-.85.6m-4.32 2.8l-1.78 1.13-4.96 2.86-2.2 1.15m-4.6 2.3l-.92.44m-4.7 2.1l-.96.4m-4.8 1.85l-1.55.58-5.1 1.65-3.2.9m-4.98 1.25l-1 .24m-5.05 1.02l-1 .18m-5.1.8l-1.77.26-3.35.35" stroke="#3a414a" stroke-linejoin="round" fill="none"/><path d="M711.47 56.5h-.5l-.03-.95.53-.02z" stroke="#3a414a" stroke-width=".05" fill="#3a414a"/><path d="M444.8 212.36l14.02-5.37.48 9.24z" stroke="#3a414a" fill="#3a414a"/><path d="M710.97 56.02l-4.2.1-.9.05m-5.1.38l-1.03.1m-5.07.68l-.97.14h-.04m-5 1l-3.03.7-3.92 1.1-2.9.95m-4.8 1.75l-.95.4m-4.67 2.05l-.93.44m-4.55 2.33l-.26.13-3.85 2.22-3.92 2.48-.7.5M650 76.46l-.8.62m-4.02 3.15l-.8.66m-3.86 3.35l-2.4 2.18-4.7 4.6-.28.3m-3.5 3.72l-.7.75m-3.36 3.85l-.67.77m-3.26 3.93l-4.8 6.05-1.46 2.03m-3 4.14l-.6.83m-2.95 4.18l-.56.85m-2.83 4.26l-4.73 7.14-.84 1.42m-2.63 4.38l-.53.88m-2.63 4.38l-.53.88m-2.63 4.38l-5.25 8.77m-2.6 4.4l-.53.88m-2.6 4.42l-.5.88m-2.6 4.4l-5.18 8.82m-2.6 4.4l-.5.9m-2.6 4.4l-.5.88m-2.6 4.4l-5.18 8.83m-2.6 4.4l-.5.9m-2.78 4.28l-.56.87m-2.83 4.26l-3.48 5.23-2.3 3.2m-3 4.14l-.62.82m-3.1 4.07l-.63.8m-3.18 4l-.38.47-5.46 6.33-.87.92m-3.5 3.73l-.66.7-.04.04m-3.66 3.57l-.73.72m-3.78 3.42l-.9.8-4.25 3.53-2.78 2.12m-4.17 2.97l-.84.6m-4.32 2.74l-.88.5m-4.47 2.5l-2.2 1.15-3.8 1.8-3.26 1.36m-4.8 1.78l-.96.3m-4.9 1.5l-.97.27m-4.98 1.16l-3.58.7-1.45.2" stroke="#3a414a" stroke-linejoin="round" fill="none"/><path d="M711.47 56.5h-.5l-.03-.95.53-.02z" stroke="#3a414a" stroke-width=".05" fill="#3a414a"/><path d="M444.8 290.53l13.88-5.7.7 9.24z" stroke="#3a414a" fill="#3a414a"/><path d="M710.97 132.9l-4.78.1m-4.78.1l-3.25.06-11.74.74-4.05.42m-4.75.5l-1.74.18-7.72 1.14m-4.7.8l-6.13 1.18-8.38 1.96-4.1 1.14m-4.58 1.3l-7.2 2.36-1.86.68m-4.47 1.67l-1.54.57-8.14 3.42-7.8 3.68m-4.25 2.16l-7.9 4.14-.55.32m-4.15 2.35l-16.6 9.4m-4.16 2.36l-8.32 4.7m-4.15 2.36l-12.75 7.2-4 1.9m-4.33 2.04l-.58.27-8.13 3.43-.08.03m-4.47 1.66l-3.32 1.24-7.85 2.54-7.04 1.97m-4.64 1.13l-4.75 1.1-4.58.9m-4.7.87l-9.24 1.36-9.68 1m-4.76.35l-4.77.3" stroke="#3a414a" stroke-linejoin="round" fill="none"/><path d="M711.47 133.36h-.5l-.03-.94h.53z" stroke="#3a414a" stroke-width=".05" fill="#3a414a"/><path d="M444.8 212.4l14.14-5.04.27 9.26z" stroke="#3a414a" fill="#3a414a"/><path d="M710.97 211.12l-4.9.1m-4.9.1l-.97.02m-4.9.22l-8.87.55-.9.1m-4.86.5l-.97.12m-4.86.55l-8.57 1.26-1.1.22m-4.82.9l-.96.2m-4.8 1.03l-5.63 1.32-3.85 1.07m-4.7 1.34l-.94.3m-4.66 1.53l-1.73.56-7.48 2.77m-4.52 1.88l-.9.38m-4.48 1.96l-7.54 3.53-1.3.68m-4.33 2.3l-.86.44m-4.35 2.28l-.2.1-8.32 4.72m-4.26 2.4l-.85.5m-4.26 2.4l-8.52 4.83m-4.26 2.4l-.85.5m-4.26 2.4l-8.52 4.83m-4.25 2.42l-.86.48m-4.37 2.2l-6 2.82-2.9 1.23m-4.52 1.9l-.7.3-.2.07m-4.6 1.7l-3.07 1.15-6.2 2m-4.68 1.4l-.94.26m-4.72 1.3l-7.73 1.8-1.8.35m-4.82.9l-.96.2m-4.84.76l-6.1.9-3.6.38m-4.87.5l-.96.1m-4.88.37l-4.9.3" stroke="#3a414a" stroke-linejoin="round" fill="none"/><path d="M711.47 211.58h-.5l-.03-.94h.53z" stroke="#3a414a" stroke-width=".05" fill="#3a414a"/><path d="M444.8 290.6l14.14-5.03.27 9.27z" stroke="#3a414a" fill="#3a414a"/><path d="M710.97 289.3l-4.24-.08-.86-.05m-5.1-.38l-1-.12m-5.05-.66l-1-.15m-5-1l-3.22-.74-3.93-1.1-2.7-.87m-4.78-1.73l-.24-.08-.72-.3m-4.67-2.05l-.92-.43m-4.55-2.3l-.6-.32-3.85-2.23-3.92-2.5-.35-.23m-4.17-2.94l-.8-.62m-4.02-3.14l-.8-.65m-3.86-3.32l-2.82-2.55-4.57-4.47m-3.5-3.7l-.7-.75m-3.36-3.82l-.67-.77m-3.3-3.9l-5.28-6.7-.98-1.34m-3-4.13l-.6-.83m-2.96-4.14l-.56-.85m-2.82-4.26l-5.46-8.24-.16-.26m-2.62-4.38l-.52-.87m-2.62-4.38l-.53-.88m-2.63-4.38l-5.24-8.75m-2.62-4.38l-.5-.88m-2.6-4.38l-.53-.88m-2.6-4.4l-5.2-8.77m-2.58-4.38l-.53-.88m-2.6-4.38l-.5-.88m-2.6-4.4l-5.2-8.77m-2.6-4.38l-.44-.77-.07-.1m-2.82-4.26l-.56-.86m-2.82-4.25l-2.93-4.44-2.87-3.95m-3-4.12l-.6-.83m-3.1-4.03l-.65-.8m-3.15-4l-5.44-6.3-1.27-1.36m-3.5-3.72l-.26-.28-.45-.44m-3.64-3.57l-.6-.6-.13-.1m-3.8-3.43l-.54-.5-4.25-3.52-3.13-2.37m-4.15-2.96l-.84-.58m-4.32-2.72l-.87-.52m-4.46-2.47l-1.94-1.03-3.8-1.8-3.5-1.46m-4.8-1.75l-.96-.32m-4.88-1.46l-1-.28m-4.96-1.16l-3.48-.66-1.54-.23" stroke="#000" stroke-linejoin="round" fill="none"/><path d="M711.47 288.85v.94l-.53-.02.02-.95z" stroke="#000" stroke-width=".05"/><path d="M444.8 56.13l14.6-3.54-.7 9.23z" stroke="#000"/><path d="M710.97 289.3l-5.14-.1m-5.13-.26l-1.03-.06m-5.12-.46l-1.02-.1m-5.1-.68l-2.73-.4-5.64-1.08-1.72-.4m-5-1.23l-.98-.28m-4.92-1.46l-.98-.33m-4.85-1.7l-2.36-.88-4.96-2.1-2.14-1m-4.6-2.27l-.92-.47m-4.5-2.48l-.9-.52m-4.38-2.68l-2.5-1.6-5.3-3.67-.68-.5m-4.1-3.12l-.77-.6-.05-.02m-3.96-3.28l-.8-.65m-3.86-3.4l-4-3.6-3.5-3.43m-3.66-3.6l-.73-.72m-3.5-3.75l-.72-.75m-3.5-3.75l-3.54-3.77-3.4-3.8m-3.43-3.85l-.68-.76m-3.43-3.83l-.7-.76m-3.4-3.83l-6.85-7.66m-3.42-3.83l-.7-.76m-3.4-3.83l-.7-.76m-3.4-3.84l-6.44-7.2-.44-.43m-3.67-3.6l-.74-.72m-3.68-3.58l-.76-.68m-3.82-3.46l-1.48-1.33-5.98-4.95-.4-.3m-4.1-3.1l-.82-.64m-4.2-2.93l-.86-.6m-4.32-2.76l-1.24-.78-5-2.88-2.7-1.4m-4.6-2.3l-.92-.43m-4.7-2.05l-.95-.4m-4.8-1.83l-1.16-.43-5.1-1.67-3.54-1m-4.98-1.23l-1-.24m-5.04-1l-1-.2m-5.1-.8l-1.58-.22-3.5-.37" stroke="#000" stroke-linejoin="round" fill="none"/><path d="M711.47 288.85v.94l-.53-.02.02-.95z" stroke="#000" stroke-width=".05"/><path d="M444.8 134.3l14.5-3.88-.48 9.25z" stroke="#000"/><path d="M710.97 289.3l-4.94-.1m-4.92-.1h-.98m-4.93-.22l-1-.06m-4.9-.3l-3.63-.24-6.2-.65m-4.9-.52l-.98-.14m-4.9-.7l-.96-.16m-4.87-.8l-6.96-1.34-2.7-.63m-4.8-1.12l-.95-.22m-4.75-1.32l-.95-.26m-4.72-1.42l-5.95-1.93-3.38-1.26m-4.62-1.73l-.1-.04-.8-.34m-4.56-1.92l-.9-.38m-4.5-2l-7.3-3.45-1.6-.83m-4.36-2.3l-.87-.46m-4.38-2.3l-.87-.45m-4.33-2.35l-8.63-4.78m-4.32-2.38l-.87-.5m-4.3-2.37l-.86-.48m-4.32-2.4l-8.63-4.76m-4.33-2.4l-.86-.47m-4.4-2.2l-.88-.43m-4.46-2.1l-1.47-.7-7.6-3.2m-4.6-1.75l-.94-.34m-4.63-1.67l-.94-.3m-4.7-1.53l-1.26-.4-8.2-2.3h-.02m-4.8-1.12l-.96-.23m-4.82-1.04l-.97-.17m-4.85-.93l-1.27-.24-8.47-1.25m-4.9-.56l-.98-.1m-4.9-.52l-1-.1m-4.9-.33l-4.93-.3" stroke="#000" stroke-linejoin="round" fill="none"/><path d="M711.47 288.85v.94l-.53-.02.02-.95z" stroke="#000" stroke-width=".05"/><path d="M444.8 212.5l14.4-4.26-.25 9.27z" stroke="#000"/><path d="M710.97 289.32l-5.18.03m-5.18.02h-1.03m-5.2.03h-1.02m-5.17.04l-10.34.05m-5.17 0l-1.05.02m-5.17.02h-1.03m-5.18.03l-10.34.06m-5.17.02h-1.04m-5.17.03h-1.03m-5.18.03l-10.34.06m-5.17.03h-1.04m-5.18.02h-1.04m-5.17.03l-10.33.05m-5.18.03h-1.04m-5.17.03h-1.05m-5.17.03l-10.35.04m-5.17.03h-1.03m-5.17.03h-1.04m-5.17.03l-10.35.05m-5.17.03H532m-5.18.04h-1.03m-5.18.03l-10.35.05m-5.17.03h-1.04m-5.17.03h-1.04m-5.18.03l-10.34.06m-5.17.03h-1.04m-5.17.02h-1.03m-5.18.03l-5.17.02" stroke="#000" stroke-linejoin="round" fill="none"/><path d="M711.47 289.8h-.5l-.02-.95h.52z" stroke="#000" stroke-width=".05"/><path d="M444.82 290.65l14.24-4.7.04 9.26z" stroke="#000"/><path d="M710.97 367.52l-1-.02m-3.97-.1l-2-.13m-3.95-.34l-1.98-.2m-3.93-.58l-.53-.08-1.42-.27m-3.9-.8l-1.93-.45m-3.84-1.04l-.93-.25-.97-.3m-3.77-1.28l-1.86-.7m-3.68-1.5l-1.25-.5-.6-.28m-3.58-1.72l-1.76-.92m-3.47-1.92l-1.72-1m-3.36-2.1l-.9-.6-.76-.5m-3.26-2.28l-1.6-1.2M645.9 344l-1.54-1.27m-3.03-2.57l-1.48-1.33m-2.92-2.7l-1.42-1.4m-2.8-2.8l-1.38-1.45m-2.72-2.9l-.54-.58-.78-.9m-2.6-3l-1.3-1.52m-2.5-3.08l-1.24-1.56m-2.47-3.12l-.75-.95-.45-.64m-2.34-3.22l-1.17-1.6m-2.33-3.23l-.9-1.22-.25-.4m-2.2-3.3l-1.1-1.66m-2.2-3.32l-1.1-1.66m-2.2-3.3l-.14-.24-.88-1.47m-2.04-3.42l-1.03-1.7m-2.05-3.4l-1.02-1.7m-2.04-3.42l-1.04-1.7m-2.04-3.42l-1.02-1.7m-2.05-3.42l-1.02-1.7m-2.04-3.42l-1.02-1.7m-2.03-3.43l-1-1.72m-2.03-3.43l-1-1.7m-2.04-3.43l-1-1.72m-2.03-3.42l-1-1.7m-2.04-3.44l-1-1.7m-2.02-3.43l-1-1.7m-2.04-3.43l-1-1.7m-2.03-3.43l-1-1.72m-2.04-3.4l-1.1-1.67m-2.2-3.3l-1.1-1.67m-2.2-3.32l-1.1-1.66m-2.24-3.27l-1.17-1.6m-2.33-3.23l-1.17-1.6m-2.38-3.2l-1.23-1.56m-2.47-3.12l-1.23-1.56m-2.57-3.03l-1.3-1.5m-2.63-3l-1.36-1.44m-2.72-2.9l-.4-.43-1-1m-2.84-2.78l-.85-.84-.6-.53m-2.95-2.67l-.9-.8-.6-.5m-3.06-2.54l-.6-.5-.97-.73m-3.17-2.4l-1.64-1.15m-3.3-2.23l-1.68-1.07m-3.4-2.04l-1.73-1m-3.53-1.83l-.34-.18-1.45-.7m-3.63-1.63l-1.83-.77m-3.7-1.42l-.85-.3-1.04-.35m-3.8-1.2l-1.9-.52m-3.87-.95l-1.2-.28-.75-.14m-3.9-.72l-.98-.14" stroke="#3a414a" stroke-linejoin="round" fill="none"/><path d="M711.47 367.06v.95h-.53l.02-.95z" stroke="#3a414a" stroke-width=".05" fill="#3a414a"/><path d="M444.8 134.35l14.6-3.54-.7 9.25z" stroke="#3a414a" fill="#3a414a"/><path d="M710.97 367.52l-1-.02m-4.03-.16l-1.55-.1-.47-.05m-4-.47l-1.98-.3m-3.95-.76l-1.96-.46m-3.9-1.04h-.04l-1.86-.62m-3.8-1.35l-.6-.24-1.25-.52m-3.7-1.64l-1.34-.63-.46-.25m-3.55-1.9l-1.74-1m-3.4-2.13l-.5-.34-1.17-.8m-3.27-2.34l-1.6-1.22m-3.13-2.53l-1.23-1.03-.3-.27m-3-2.7l-.42-.38-1.03-1m-2.87-2.83L646.5 337m-2.75-2.93l-1.32-1.53m-2.63-3.05l-.43-.5-.84-1.06m-2.5-3.16l-1.24-1.58m-2.38-3.25l-1.18-1.63m-2.33-3.28l-1.1-1.67m-2.23-3.36l-1.1-1.66m-2.14-3.42l-1.05-1.72m-2.08-3.44l-1.04-1.72m-2-3.5l-.98-1.75m-1.93-3.54l-.97-1.76m-1.94-3.53l-.96-1.77m-1.82-3.6l-.9-1.8m-1.77-3.6l-.9-1.8m-1.8-3.6l-.88-1.8m-1.78-3.62l-.9-1.8m-1.7-3.64l-.84-1.84m-1.67-3.66l-.83-1.83m-1.67-3.65l-.83-1.83m-1.67-3.66l-.83-1.84m-1.67-3.66l-.83-1.83m-1.67-3.66l-.83-1.83m-1.67-3.67l-.83-1.83m-1.67-3.66l-.83-1.83m-1.67-3.66l-.83-1.84m-1.67-3.67l-.83-1.84m-1.67-3.66l-.83-1.83m-1.67-3.66l-.84-1.83m-1.67-3.66l-.84-1.82m-1.67-3.66l-.84-1.83m-1.67-3.68l-.84-1.83m-1.67-3.67l-.84-1.83m-1.67-3.66l-.84-1.83m-1.68-3.66l-.83-1.83m-1.68-3.65l-.83-1.83m-1.68-3.66l-.83-1.84m-1.68-3.66l-.83-1.83m-1.88-3.56l-.97-1.76m-1.93-3.52l-.97-1.77m-1.94-3.5l-.76-1.44-.2-.33m-2.1-3.44l-1.03-1.74m-2.07-3.44L531.2 119m-2.22-3.36l-1.12-1.68m-2.22-3.35l-.43-.65-.7-1m-2.38-3.25l-1.18-1.63m-2.45-3.2l-1.25-1.57m-2.53-3.13l-1.3-1.52m-2.65-3.05l-1.38-1.46m-2.76-2.93l-1.44-1.4m-2.9-2.8l-1.5-1.34m-3.03-2.63l-1.55-1.3m-3.2-2.45l-.88-.68-.73-.5m-3.3-2.27l-1.7-1.08m-3.47-2.05l-.65-.38-1.12-.58m-3.6-1.8l-1.6-.76-.22-.1M472 63.57l-1.87-.7m-3.82-1.25l-1.93-.53m-3.9-.96l-.26-.05-.73-.14" stroke="#3a414a" stroke-linejoin="round" fill="none"/><path d="M711.47 367.06v.95h-.53l.02-.95z" stroke="#3a414a" stroke-width=".05" fill="#3a414a"/><path d="M444.8 58.45l14.66-3.2-.9 9.23z" stroke="#3a414a" fill="#3a414a"/><path d="M710.97 367.52l-1-.02m-4-.08l-1.54-.03-.44-.04m-4-.25l-2-.1m-3.96-.42l-1.98-.2m-3.95-.57l-1.96-.3m-3.93-.7l-1.95-.4m-3.88-.9l-1.74-.4-.2-.06m-3.84-1.07l-1.23-.34-.7-.22m-3.8-1.23l-.62-.2-1.25-.47m-3.74-1.4h-.02l-1.82-.76m-3.67-1.57l-1.8-.85m-3.6-1.74l-1.76-.92m-3.5-1.9l-1.74-1m-3.42-2.06l-1.68-1.07m-3.33-2.2l-1.64-1.14m-3.25-2.33l-1.6-1.2m-3.16-2.43l-1.55-1.27m-3.07-2.55l-1.17-.97-.35-.3m-2.96-2.7l-1.5-1.32m-2.9-2.72l-1.43-1.4m-2.85-2.78l-1.43-1.4m-2.78-2.86l-1.37-1.46m-2.72-2.9l-1.37-1.47m-2.72-2.9l-1.36-1.47m-2.66-2.97l-1.33-1.5m-2.67-2.98l-1.32-1.5m-2.65-2.97l-1.33-1.5m-2.66-2.96l-1.32-1.5m-2.66-2.98l-1.33-1.5m-2.65-2.96l-1.33-1.5m-2.66-2.97l-1.32-1.5m-2.65-2.97l-1.33-1.5m-2.66-2.97l-1.33-1.5m-2.64-2.96l-1.33-1.5m-2.84-2.8l-1.43-1.4m-2.85-2.8l-1-.96-.44-.4m-2.96-2.68l-1.5-1.34m-3-2.62l-1.53-1.27M531.3 243l-.14-.13-1.45-1.1m-3.17-2.4l-.94-.72-.67-.47m-3.28-2.28l-1.33-.93-.3-.2m-3.38-2.13l-1.42-.9-.27-.16m-3.46-2l-1.25-.73-.48-.24m-3.53-1.84l-.93-.5-.85-.4m-3.6-1.7l-.47-.2-1.37-.58m-3.67-1.54l-1.87-.7m-3.75-1.36l-1.88-.62m-3.8-1.18l-1.94-.53m-3.86-1l-1.94-.46m-3.9-.82l-1.96-.38m-3.94-.64l-1.98-.3m-3.96-.47l-1-.1" stroke="#3a414a" stroke-linejoin="round" fill="none"/><path d="M711.47 367.06v.95h-.53l.02-.95z" stroke="#3a414a" stroke-width=".05" fill="#3a414a"/><path d="M444.8 212.52l14.5-3.9-.48 9.27z" stroke="#3a414a" fill="#3a414a"/><path d="M710.97 367.52l-1-.02m-4.05-.08l-2-.04m-4.05-.08l-2-.04m-4.04-.25l-2-.12m-4.04-.25l-2.02-.12m-4.02-.4l-2-.22m-4-.42l-.9-.1-1.12-.16m-4-.6l-1.98-.28m-3.98-.64l-2-.38m-3.95-.75l-1.92-.37h-.05m-3.93-.93l-1.96-.46m-3.92-1l-1.94-.53m-3.88-1.1l-1.1-.3-.84-.26m-3.83-1.24l-1.92-.63m-3.8-1.34l-1.9-.7m-3.77-1.42l-.1-.03-1.76-.75m-3.72-1.56l-1.86-.8m-3.67-1.66l-1.83-.86m-3.65-1.72l-1.55-.73-.27-.14m-3.57-1.88l-1.78-.94m-3.57-1.86l-1.8-.94m-3.54-1.9l-1.78-.98m-3.53-1.96l-1.78-.97m-3.53-1.96l-1.77-.98m-3.53-1.95l-1.77-.97m-3.53-1.95l-1.76-.98m-3.53-1.95l-1.76-.97m-3.53-1.96l-1.75-.97m-3.53-1.95l-1.77-.98m-3.6-1.84l-1.8-.86m-3.66-1.72l-1.84-.86m-3.7-1.58l-1.87-.8m-3.73-1.54l-1.9-.7m-3.77-1.4l-1.9-.7m-3.83-1.27l-1.9-.62m-3.87-1.2l-1.94-.53m-3.9-1.1l-1.03-.28-.9-.2m-3.94-.93l-1.97-.47m-3.95-.83l-1.98-.38m-3.96-.76l-1-.2-1-.13m-3.98-.6l-2-.28m-4-.55l-2-.2m-4-.43l-2.02-.2m-4.02-.33l-2-.12m-4.04-.25l-1-.07" stroke="#3a414a" stroke-linejoin="round" fill="none"/><path d="M711.47 367.06v.95h-.53l.02-.95z" stroke="#3a414a" stroke-width=".05" fill="#3a414a"/><path d="M444.8 290.7l14.4-4.24-.25 9.26z" stroke="#3a414a" fill="#3a414a"/><defs><path d="M180 0v-1490h528c311 0 458 177 458 395 0 191-114 278-244 313v14c139 9 302 137 302 371 0 225-148 397-499 397H180zm190-168h350c232 0 321-102 321-231 0-149-120-277-311-277H370v508zm0-668h328c160 0 286-101 286-255 0-129-87-231-280-231H370v486" id="v"/><path d="M471 26C259 26 90-98 90-318c0-256 228-303 435-329 202-27 287-16 287-108 0-139-79-219-234-219-161 0-248 86-283 164l-173-57c86-203 278-265 451-265 150 0 419 46 419 395V0H815v-152h-12C765-73 660 26 471 26zm31-159c199 0 310-134 310-271v-155c-30 35-226 55-295 64-131 17-246 59-246 186 0 116 97 176 231 176" id="w"/><path d="M613 24c-304 0-509-231-509-576 0-350 205-580 509-580 216 0 392 114 453 309l-173 49c-33-115-133-197-280-197-223 0-326 196-326 419 0 220 103 415 326 415 150 0 252-85 285-206l172 49C1010-95 832 24 613 24" id="x"/><path d="M158 0v-1490h180v865h22l478-493h223L593-638 1096 0H865L456-523 338-412V0H158" id="y"/><path d="M628 24c-324 0-524-230-524-574 0-343 198-582 503-582 237 0 487 146 487 559v75H286c9 234 145 362 343 362 132 0 231-58 273-172l174 48C1024-91 857 24 628 24zM287-650h624c-17-190-120-322-304-322-192 0-309 151-320 322" id="z"/><path d="M338-670V0H158v-1118h173l1 207c72-158 192-221 342-221 226 0 378 139 378 422V0H872v-695c0-172-96-275-252-275-161 0-282 109-282 300" id="A"/><path d="M577 24c-279 0-473-224-473-580 0-354 195-576 474-576 218 0 287 134 324 193h14v-551h180V0H922v-173h-20C865-111 790 24 577 24zm27-161c203 0 314-172 314-421 0-247-108-413-314-413-212 0-317 181-317 413 0 235 108 421 317 421" id="B"/><g id="a"><use transform="matrix(0.006510416666666667,0,0,0.006510416666666667,0,0)" xlink:href="#v"/><use transform="matrix(0.006510416666666667,0,0,0.006510416666666667,8.723958333333334,0)" xlink:href="#w"/><use transform="matrix(0.006510416666666667,0,0,0.006510416666666667,16.2109375,0)" xlink:href="#x"/><use transform="matrix(0.006510416666666667,0,0,0.006510416666666667,23.828125,0)" xlink:href="#y"/><use transform="matrix(0.006510416666666667,0,0,0.006510416666666667,30.84635416666666,0)" xlink:href="#z"/><use transform="matrix(0.006510416666666667,0,0,0.006510416666666667,38.619791666666664,0)" xlink:href="#A"/><use transform="matrix(0.006510416666666667,0,0,0.006510416666666667,46.49739583333333,0)" xlink:href="#B"/></g><path d="M783 20c-382 0-661-292-661-764 0-473 279-766 661-766 302 0 548 182 601 489h-190c-42-204-217-313-411-313-268 0-476 208-476 590 0 381 209 588 476 588 195 0 369-110 411-313h190c-52 303-296 489-601 489" id="C"/><path d="M711 0l68-411H407L340 0H189l67-411H34l25-150h222l60-366H122l25-152h219l67-411h151l-67 411h372l68-411h151l-67 411h220l-23 152h-222l-60 366h219l-25 150H931L864 0H711zM432-561h372l60-366H492" id="D"/><g id="b"><use transform="matrix(0.006510416666666667,0,0,0.006510416666666667,0,0)" xlink:href="#C"/><use transform="matrix(0.006510416666666667,0,0,0.006510416666666667,9.739583333333334,0)" xlink:href="#D"/></g><path d="M600 0L52-1490h200c166 485 304 806 458 1336 156-533 285-846 449-1336h202L819 0H600" id="E"/><path d="M537 14c-226 0-379-139-379-422v-710h180v695c0 172 97 275 253 275 160 0 281-109 281-300v-670h181V0H879v-209C806-46 684 14 537 14" id="F"/><g id="c"><use transform="matrix(0.006510416666666667,0,0,0.006510416666666667,0,0)" xlink:href="#E"/><use transform="matrix(0.006510416666666667,0,0,0.006510416666666667,9.19921875,0)" xlink:href="#F"/><use transform="matrix(0.006510416666666667,0,0,0.006510416666666667,17.083333333333336,0)" xlink:href="#z"/></g><path d="M763 24c-353 0-583-224-583-531v-983h190v968c0 214 149 370 393 370 243 0 391-156 391-370v-968h190v983c0 307-230 531-581 531" id="G"/><path d="M370-1490V0H180v-1490h190" id="H"/><g id="d"><use transform="matrix(0.006510416666666667,0,0,0.006510416666666667,0,0)" xlink:href="#G"/><use transform="matrix(0.006510416666666667,0,0,0.006510416666666667,9.921875,0)" xlink:href="#H"/></g><path d="M645 0H180v-1490h484c435 0 692 280 692 742 0 466-257 748-711 748zM370-168h263c363 0 539-218 539-580 0-358-176-574-521-574H370v1154" id="I"/><path d="M613 24c-304 0-509-231-509-576 0-350 205-580 509-580 305 0 511 230 511 580 0 345-206 576-511 576zm0-161c226 0 329-195 329-415 0-222-103-419-329-419-223 0-326 196-326 419 0 220 103 415 326 415" id="J"/><path d="M538 24C308 24 148-78 108-271l171-41c32 123 123 178 257 178 156 0 256-77 256-169 0-77-54-128-164-154l-186-44c-203-48-300-148-300-305 0-192 176-326 414-326 230 0 351 112 402 269l-163 42c-31-80-94-158-238-158-133 0-233 69-233 162 0 83 57 129 188 160l169 40c203 48 298 149 298 302 0 196-179 339-441 339" id="K"/><g id="e"><use transform="matrix(0.006510416666666667,0,0,0.006510416666666667,0,0)" xlink:href="#I"/><use transform="matrix(0.006510416666666667,0,0,0.006510416666666667,9.622395833333334,0)" xlink:href="#J"/><use transform="matrix(0.006510416666666667,0,0,0.006510416666666667,17.6171875,0)" xlink:href="#x"/><use transform="matrix(0.006510416666666667,0,0,0.006510416666666667,25.234375,0)" xlink:href="#K"/></g><path d="M180 0v-1490h510c348 0 508 194 508 460 0 198-88 351-276 417L1256 0h-220L726-579c-117 2-238 0-356 1V0H180zm190-747h312c235 0 327-108 327-283 0-177-92-293-329-293H370v576" id="L"/><path d="M598-1118v154H368v674c0 100 37 144 132 144 23 0 62-6 92-12L629-6c-37 13-88 20-134 20-193 0-307-107-307-290v-688H20v-154h168v-266h180v266h230" id="M"/><g id="f"><use transform="matrix(0.006510416666666667,0,0,0.006510416666666667,0,0)" xlink:href="#L"/><use transform="matrix(0.006510416666666667,0,0,0.006510416666666667,8.385416666666668,0)" xlink:href="#z"/><use transform="matrix(0.006510416666666667,0,0,0.006510416666666667,16.2890625,0)" xlink:href="#w"/><use transform="matrix(0.006510416666666667,0,0,0.006510416666666667,23.776041666666668,0)" xlink:href="#x"/><use transform="matrix(0.006510416666666667,0,0,0.006510416666666667,31.393229166666668,0)" xlink:href="#M"/></g><path d="M789 20c-398 0-667-293-667-764 0-473 273-766 655-766 315 0 558 198 612 487h-196c-61-191-204-311-415-311-262 0-471 207-471 590 0 380 208 588 482 588 249 0 420-165 425-427H828v-166h572v163c0 370-256 606-611 606" id="N"/><path d="M158 0v-1118h180V0H158zm91-1301c-68 0-125-53-125-119s57-119 125-119c69 0 126 53 126 119s-57 119-126 119" id="O"/><g id="g"><use transform="matrix(0.006510416666666667,0,0,0.006510416666666667,0,0)" xlink:href="#N"/><use transform="matrix(0.006510416666666667,0,0,0.006510416666666667,9.947916666666668,0)" xlink:href="#O"/><use transform="matrix(0.006510416666666667,0,0,0.006510416666666667,13.177083333333336,0)" xlink:href="#M"/></g><path d="M611 442c-248 0-391-105-460-228l146-94c47 65 117 165 314 165 178 0 307-82 307-266v-224h-17C863-141 792-18 576-18c-268 0-472-195-472-546 0-346 197-568 476-568 216 0 288 133 326 193h17v-179h175V29c0 289-215 413-487 413zm-5-620c203 0 314-146 314-390 0-237-108-403-314-403-213 0-319 180-319 403 0 230 109 390 319 390" id="P"/><g id="h"><use transform="matrix(0.006510416666666667,0,0,0.006510416666666667,0,0)" xlink:href="#G"/><use transform="matrix(0.006510416666666667,0,0,0.006510416666666667,9.921875,0)" xlink:href="#K"/><use transform="matrix(0.006510416666666667,0,0,0.006510416666666667,16.959635416666668,0)" xlink:href="#w"/><use transform="matrix(0.006510416666666667,0,0,0.006510416666666667,24.446614583333336,0)" xlink:href="#P"/><use transform="matrix(0.006510416666666667,0,0,0.006510416666666667,32.62369791666667,0)" xlink:href="#z"/></g><path d="M295 13c-75 0-135-60-135-135s60-135 135-135 135 60 135 135S370 13 295 13" id="Q"/><path d="M180 0v-1490h224l606 953c40 63 108 177 176 312-27-437-7-821-13-1265h190V0h-226C860-448 622-778 356-1262c27 476 11 792 15 1262H180" id="R"/><path d="M180 0v-1490h908v168H370v486h669v168H370v500h727V0H180" id="S"/><path d="M98-1322v-168h1126v168H757V0H567v-1322H98" id="T"/><g id="i"><use transform="matrix(0.006510416666666667,0,0,0.006510416666666667,0,0)" xlink:href="#Q"/><use transform="matrix(0.006510416666666667,0,0,0.006510416666666667,3.8411458333333335,0)" xlink:href="#R"/><use transform="matrix(0.006510416666666667,0,0,0.006510416666666667,13.88671875,0)" xlink:href="#S"/><use transform="matrix(0.006510416666666667,0,0,0.006510416666666667,21.90104166666667,0)" xlink:href="#T"/></g><g id="j"><use transform="matrix(0.006510416666666667,0,0,0.006510416666666667,0,0)" xlink:href="#w"/><use transform="matrix(0.006510416666666667,0,0,0.006510416666666667,7.486979166666667,0)" xlink:href="#A"/><use transform="matrix(0.006510416666666667,0,0,0.006510416666666667,15.364583333333334,0)" xlink:href="#B"/></g><g id="k"><use transform="matrix(0.006510416666666667,0,0,0.006510416666666667,0,0)" xlink:href="#E"/><use transform="matrix(0.006510416666666667,0,0,0.006510416666666667,9.19921875,0)" xlink:href="#F"/><use transform="matrix(0.006510416666666667,0,0,0.006510416666666667,17.083333333333336,0)" xlink:href="#z"/></g><path d="M52 0l541-1490h220L1361 0h-200l-149-416H398L254 0H52zm404-582h497c-103-290-145-390-251-756-108 377-145 460-246 756" id="U"/><path d="M158 418v-1536h174v179h20c37-59 106-193 324-193 279 0 474 222 474 576 0 356-194 580-473 580-213 0-288-135-325-197h-14v591H158zm492-555c209 0 317-186 317-421 0-232-105-413-317-413-206 0-314 166-314 413 0 249 111 421 314 421" id="V"/><g id="l"><use transform="matrix(0.006510416666666667,0,0,0.006510416666666667,0,0)" xlink:href="#U"/><use transform="matrix(0.006510416666666667,0,0,0.006510416666666667,9.19921875,0)" xlink:href="#V"/><use transform="matrix(0.006510416666666667,0,0,0.006510416666666667,17.36328125,0)" xlink:href="#V"/></g><path d="M657 26c-323 0-524-166-541-416h195c15 169 171 246 346 246 202 0 356-106 356-265 5-203-294-238-475-293-239-73-380-191-380-389 0-252 224-419 512-419 294 0 499 171 508 396H992c-17-145-151-228-328-228-193 0-321 102-321 242 0 156 175 211 284 241l149 41c160 44 422 134 422 412 0 244-197 432-541 432" id="W"/><g id="m"><use transform="matrix(0.006510416666666667,0,0,0.006510416666666667,0,0)" xlink:href="#T"/><use transform="matrix(0.006510416666666667,0,0,0.006510416666666667,8.606770833333334,0)" xlink:href="#W"/></g><path d="M338-1490V0H158v-1490h180" id="X"/><path d="M140 405l46-156c120 36 205 19 263-150l32-93L54-1118h197c107 313 237 620 324 950 87-331 219-637 326-950h196L606 167c-68 178-176 259-334 259-64 0-113-12-132-21" id="Y"/><g id="n"><use transform="matrix(0.006510416666666667,0,0,0.006510416666666667,0,0)" xlink:href="#S"/><use transform="matrix(0.006510416666666667,0,0,0.006510416666666667,8.014322916666668,0)" xlink:href="#X"/><use transform="matrix(0.006510416666666667,0,0,0.006510416666666667,11.30859375,0)" xlink:href="#Y"/><use transform="matrix(0.006510416666666667,0,0,0.006510416666666667,18.802083333333336,0)" xlink:href="#K"/><use transform="matrix(0.006510416666666667,0,0,0.006510416666666667,25.839843750000004,0)" xlink:href="#O"/><use transform="matrix(0.006510416666666667,0,0,0.006510416666666667,29.069010416666675,0)" xlink:href="#w"/></g><g id="o"><use transform="matrix(0.006510416666666667,0,0,0.006510416666666667,0,0)" xlink:href="#L"/><use transform="matrix(0.006510416666666667,0,0,0.006510416666666667,8.385416666666668,0)" xlink:href="#z"/><use transform="matrix(0.006510416666666667,0,0,0.006510416666666667,16.2890625,0)" xlink:href="#w"/><use transform="matrix(0.006510416666666667,0,0,0.006510416666666667,23.776041666666668,0)" xlink:href="#x"/><use transform="matrix(0.006510416666666667,0,0,0.006510416666666667,31.393229166666668,0)" xlink:href="#M"/></g><g id="p"><use transform="matrix(0.006510416666666667,0,0,0.006510416666666667,0,0)" xlink:href="#S"/><use transform="matrix(0.006510416666666667,0,0,0.006510416666666667,8.014322916666668,0)" xlink:href="#X"/><use transform="matrix(0.006510416666666667,0,0,0.006510416666666667,11.30859375,0)" xlink:href="#Y"/><use transform="matrix(0.006510416666666667,0,0,0.006510416666666667,18.802083333333336,0)" xlink:href="#K"/><use transform="matrix(0.006510416666666667,0,0,0.006510416666666667,25.839843750000004,0)" xlink:href="#O"/><use transform="matrix(0.006510416666666667,0,0,0.006510416666666667,29.069010416666675,0)" xlink:href="#w"/></g><g id="q"><use transform="matrix(0.006510416666666667,0,0,0.006510416666666667,0,0)" xlink:href="#L"/><use transform="matrix(0.006510416666666667,0,0,0.006510416666666667,8.385416666666668,0)" xlink:href="#z"/><use transform="matrix(0.006510416666666667,0,0,0.006510416666666667,16.2890625,0)" xlink:href="#w"/><use transform="matrix(0.006510416666666667,0,0,0.006510416666666667,23.776041666666668,0)" xlink:href="#x"/><use transform="matrix(0.006510416666666667,0,0,0.006510416666666667,31.393229166666668,0)" xlink:href="#M"/></g><path d="M180 0v-1490h510c348 0 508 209 508 474 0 266-160 477-507 477H370V0H180zm190-706h312c236 0 327-133 327-310 0-176-91-307-329-307H370v617" id="Z"/><g id="r"><use transform="matrix(0.006510416666666667,0,0,0.006510416666666667,0,0)" xlink:href="#U"/><use transform="matrix(0.006510416666666667,0,0,0.006510416666666667,9.19921875,0)" xlink:href="#Z"/><use transform="matrix(0.006510416666666667,0,0,0.006510416666666667,17.71484375,0)" xlink:href="#H"/></g><path d="M158 0v-1118h174v172h12c41-113 157-188 290-188 26 0 70 2 91 3v181c-11-2-60-10-108-10-161 0-279 109-279 260V0H158" id="aa"/><g id="s"><use transform="matrix(0.006510416666666667,0,0,0.006510416666666667,0,0)" xlink:href="#W"/><use transform="matrix(0.006510416666666667,0,0,0.006510416666666667,8.5546875,0)" xlink:href="#z"/><use transform="matrix(0.006510416666666667,0,0,0.006510416666666667,16.328125,0)" xlink:href="#x"/><use transform="matrix(0.006510416666666667,0,0,0.006510416666666667,23.9453125,0)" xlink:href="#F"/><use transform="matrix(0.006510416666666667,0,0,0.006510416666666667,31.829427083333336,0)" xlink:href="#aa"/><use transform="matrix(0.006510416666666667,0,0,0.006510416666666667,37.05729166666667,0)" xlink:href="#O"/><use transform="matrix(0.006510416666666667,0,0,0.006510416666666667,40.286458333333336,0)" xlink:href="#M"/><use transform="matrix(0.006510416666666667,0,0,0.006510416666666667,44.908854166666664,0)" xlink:href="#Y"/></g><g id="t"><use transform="matrix(0.006510416666666667,0,0,0.006510416666666667,0,0)" xlink:href="#v"/><use transform="matrix(0.006510416666666667,0,0,0.006510416666666667,8.723958333333334,0)" xlink:href="#z"/><use transform="matrix(0.006510416666666667,0,0,0.006510416666666667,16.497395833333336,0)" xlink:href="#K"/><use transform="matrix(0.006510416666666667,0,0,0.006510416666666667,23.535156250000004,0)" xlink:href="#M"/></g><g id="u"><use transform="matrix(0.006510416666666667,0,0,0.006510416666666667,0,0)" xlink:href="#Z"/><use transform="matrix(0.006510416666666667,0,0,0.006510416666666667,8.515625,0)" xlink:href="#aa"/><use transform="matrix(0.006510416666666667,0,0,0.006510416666666667,13.53515625,0)" xlink:href="#w"/><use transform="matrix(0.006510416666666667,0,0,0.006510416666666667,21.022135416666668,0)" xlink:href="#x"/><use transform="matrix(0.006510416666666667,0,0,0.006510416666666667,28.639322916666668,0)" xlink:href="#M"/><use transform="matrix(0.006510416666666667,0,0,0.006510416666666667,33.001302083333336,0)" xlink:href="#O"/><use transform="matrix(0.006510416666666667,0,0,0.006510416666666667,36.23046875,0)" xlink:href="#x"/><use transform="matrix(0.006510416666666667,0,0,0.006510416666666667,43.84765625,0)" xlink:href="#z"/><use transform="matrix(0.006510416666666667,0,0,0.006510416666666667,51.62109375,0)" xlink:href="#K"/></g></defs></g></svg>